<svg id="Layer_1" style="height: 60px; width: 50px;" fill="" data-name="Layer 1" xmlns="http://www.w3.org/2000/svg" viewBox="0 0 500.3 441.3"><defs><style></style></defs><path class="cls-1" d="M500.15,279.5a249.57,249.57,0,0,1-88.79,191.15c-13.5-47-44-67.36-56.19-76.7C340.88,383,306,372.21,306,372.21V340.27c39-28.61,41.92-68.57,41.92-68.57,24.49-10.77,8-34.29,8-34.29l5.68-5.68V209.4c-8.42-96.78-67.2-95-67.2-95L283.08,91.66C260.36,89.5,221,96.16,221,96.16c-62.09,17.64-79.77,85.57-79.77,85.57-3.82,13-3.48,50-3.48,50l6.09,7c-16.09,22,9.52,34.87,9.52,34.87,5.44,45.06,40.57,67.12,40.57,67.12v31.95c-71.44,18.75-96.75,66.83-105.7,97.61A249.52,249.52,0,0,1-.15,279.5c0-138.15,112-250.15,250.16-250.15S500.15,141.35,500.15,279.5Z" transform="translate(0.15 -29.35)"></path></svg>