<svg id="Layer_165" data-name="Layer 1" fill="" xmlns="http://www.w3.org/2000/svg" viewBox="0 0 187.27 187.3"><style>svg#Layer_165{ width: 75px; height: 75px;}</style><path d="M182.1,159.7l-45.3-45.3c-.3-.3-.6-.5-1.4-1.2l-2.2,2.9-10.5-10.4a15.14,15.14,0,0,1,.9-1.4,59.11,59.11,0,0,0,8-43.4,58.92,58.92,0,0,0-21.4-35.4,3.57,3.57,0,0,1-1.5-3.4c.1-4.3,0-8.5,0-12.8V8.7A9,9,0,0,0,99.4,0H45.7a9,9,0,0,0-9.4,9.4q-.15,6.3,0,12.6a4,4,0,0,1-1.8,3.6,59.84,59.84,0,0,0-19,66.5c1.5,4.1,3.5,8.1,5.2,12a29.09,29.09,0,0,0-4.2,2.5c-2.3,2-4.4,4.3-6.6,6.5a9.14,9.14,0,0,0-1.6,10.2c1.5,3.2.9,4.4-2.4,5.7a9.05,9.05,0,0,0-6,8.5v8.7A9.08,9.08,0,0,0,6,154.8c3.2,1.2,3.7,2.5,2.3,5.6A9.12,9.12,0,0,0,10,170.8c1.9,2,3.9,3.9,5.9,5.9a9.15,9.15,0,0,0,10.9,1.9c2.8-1.3,4.3-.6,5.3,2.3a9,9,0,0,0,8.9,6.3h8.1a9,9,0,0,0,8.9-6.3c1.1-3,2.6-3.6,5.5-2.2A9,9,0,0,0,74,177.1q3.15-3,6.3-6.3A9,9,0,0,0,82,160.5c-1.4-3.1-.9-4.5,2.3-5.6s5.8-3.5,5.9-6.9c.2-5.8,1.8-11.8-2.2-16.7l18-8.1,10,10-2.6,2.8a8.64,8.64,0,0,0,1.3,1.4l21.1,21.1c8,8,15.9,15.9,23.9,23.8,5.9,5.8,14.2,6.6,20.6,2.1C188.7,178.3,189.5,167.1,182.1,159.7ZM42.3,17.5V9.4c0-2.2,1.1-3.4,3.4-3.4H99.3c2.2,0,3.4,1.1,3.4,3.1V24H42.3Zm60.3,12.8V48.2H42.4V30.3ZM42.3,54.4h60.4V68.7c0,2.7-1.1,3.7-3.8,3.7H46.3c-3,0-4-1-4-3.9Zm-6.1,15h0a8.92,8.92,0,0,0,8.8,9c18.3.1,36.6.1,54.8,0a9,9,0,0,0,8.8-9v-16a5.54,5.54,0,0,1,.2-1.8,33.42,33.42,0,0,1,5,12.4,42,42,0,0,1-31.1,49.3,2.37,2.37,0,0,1-2.8-.8c-1.8-2-3.7-3.8-5.6-5.6a9,9,0,0,0-10.7-1.8c-2.8,1.3-4.4.7-5.4-2.2a9,9,0,0,0-9-6.3c-3.4,0-6.9.2-10.3.2a2.75,2.75,0,0,1-1.5-.8,41.06,41.06,0,0,1-7.1-26.8,41.7,41.7,0,0,1,4.3-15.5c.4-.8.8-1.5,1.2-2.2l.4.1V69.4ZM19.4,83.9C15.6,64.3,20.9,47.3,35,33.2c.3-.3.6-.5,1.2-1.1h0c0,2.9,0,5.5-.1,7.8a3,3,0,0,1-.8,1.6c-14,17.4-15,39.2-2.8,58,1,1.4-.6,5.7-2.3,6a2.15,2.15,0,0,1-1.5-1A50.11,50.11,0,0,1,19.4,83.9Zm61.2,66c-4.7,1.7-6.5,7.4-4.4,12,1.3,2.9,1.2,3.4-1,5.6l-4.8,4.8a3.51,3.51,0,0,1-4.3.7c-5.8-2.7-11.2-.6-13.3,5.4a3.39,3.39,0,0,1-3.7,2.6H41.6a3.29,3.29,0,0,1-3.6-2.4,8.49,8.49,0,0,0-.9-2.2A9.39,9.39,0,0,0,24.4,173a3.08,3.08,0,0,1-4-.6l-5.7-5.7a3.23,3.23,0,0,1-.6-4.1c2.7-5.9.6-11.2-5.4-13.3a3.29,3.29,0,0,1-2.6-3.6v-7.5a3.11,3.11,0,0,1,2.5-3.5,6.71,6.71,0,0,0,2.3-1A9.3,9.3,0,0,0,14.2,121a2.93,2.93,0,0,1,.6-3.9l5.7-5.7a3.36,3.36,0,0,1,4.1-.6c5.9,2.8,11.1.6,13.4-5.6a3.45,3.45,0,0,1,3.4-2.5h7.9a3.07,3.07,0,0,1,3.3,2.5,8.49,8.49,0,0,0,.9,2.2,9.42,9.42,0,0,0,12.7,3.4,3,3,0,0,1,4,.6l5.7,5.7a3.36,3.36,0,0,1,.6,4.1c-2.7,5.8-.6,11.2,5.4,13.3a3.5,3.5,0,0,1,2.6,3.8v5.1C85,146.6,84,148.6,80.6,149.9Zm.7-24.2c.6-2,1.1-4,1.8-6,.1-.3,1-.5,1.5-.6,19-5.5,31-17.8,35.1-37.1,3.2-14.7-.5-28-9.8-39.8a5.11,5.11,0,0,1-1.3-3.7c.1-1.9,0-3.8,0-5.7,0-.1.1-.2.2-.5h0A53.83,53.83,0,0,1,124,89C116.6,112,96.7,123.7,81.3,125.7Zm30.3-6.8,7.4-7.2,9,9.1-7.3,7.2Zm68.7,56.4a9.75,9.75,0,0,1-9.4,5.7,9.29,9.29,0,0,1-6.3-2.7l-42.1-42.1c-.1-.1-.1-.1-.1-.2l13.7-13.7c.2.2.5.4.8.7L178,164.1A9.77,9.77,0,0,1,180.3,175.3Z" transform="translate(0.1 0.01)"/><polygon points="154.1 33.21 154 33.21 154 33.21 154.1 33.21"/><polygon points="148 33.21 148 33.21 148 33.21 148 33.21 148 33.21 148 33.21 148 33.11 148 33.21 148 33.21 148 33.21 148 33.21 148 33.21"/><polygon points="154 33.21 154 27.31 148 27.31 148 33.21 154 33.21"/><path d="M147.9,39.2Z" transform="translate(0.1 0.01)"/><rect x="142.1" y="33.21" width="5.9" height="6"/><polygon points="154 39.21 154 39.21 154 39.31 154.1 39.31 154 39.21 159.9 39.21 159.9 33.21 154 33.21 154 33.21 154 39.21"/><path d="M153.9,33.2Z" transform="translate(0.1 0.01)"/><polygon points="148 45.11 154 45.11 154 39.31 154 39.31 148 39.31 148 45.11"/><polygon points="166.1 90.61 172.1 90.61 172.1 90.61 172.1 84.61 166.1 84.61 166.1 90.61"/><rect x="160.2" y="90.61" width="5.9" height="6"/><polygon points="178 90.61 172.2 90.61 172.2 90.61 172.2 96.61 178 96.61 178 90.61"/><path d="M172.1,96.6h0Z" transform="translate(0.1 0.01)"/><rect x="166.1" y="96.61" width="6" height="5.9"/><path d="M166,96.6Z" transform="translate(0.1 0.01)"/><path d="M172,96.6Z" transform="translate(0.1 0.01)"/><polygon points="175.1 12.11 175.1 6.21 169.1 6.21 169.1 12.01 169.1 12.11 175.1 12.11"/><polygon points="169.1 18.11 169.1 12.11 169.1 12.11 169.1 12.11 169.1 12.11 169.1 12.11 163.2 12.11 163.2 18.11 169.1 18.11"/><polygon points="181.1 12.11 175.1 12.11 175.1 18.11 175.1 18.11 175.1 18.11 175.2 18.11 175.1 18.11 181.1 18.11 181.1 12.11"/><polygon points="169.1 24.01 175.1 24.01 175.1 18.21 175.1 18.11 169.1 18.11 169.1 24.01"/><polygon points="105.7 157.01 99.7 157.01 99.7 163.01 93.8 163.01 93.8 169.01 99.7 169.01 99.7 163.01 105.7 163.01 105.7 163.01 105.7 162.91 105.7 157.01"/><polygon points="105.7 169.01 105.7 168.91 105.7 169.01 105.8 169.01 105.7 169.01 111.7 169.01 111.7 163.01 105.7 163.01 105.7 169.01"/><rect x="99.7" y="169.01" width="6" height="5.9"/><path d="M45.4,114.7a27.15,27.15,0,0,0-.3,54.3h0a27.15,27.15,0,1,0,.3-54.3Zm21,27a21.1,21.1,0,1,1-21.2-21h0a21.23,21.23,0,0,1,21.2,21Z" transform="translate(0.1 0.01)"/><path d="M171.9,169a3,3,0,0,0-2.9,3.1,3,3,0,0,0,6-.2h0A2.89,2.89,0,0,0,171.9,169Z" transform="translate(0.1 0.01)"/><rect x="78.7" y="36.31" width="5.8" height="5.8"/><rect x="90.7" y="36.41" width="5.8" height="5.8"/><rect x="66.7" y="36.31" width="5.8" height="5.9"/><rect x="72.7" y="12.21" width="5.9" height="5.8"/><rect x="48.5" y="12.11" width="5.8" height="5.9"/><rect x="60.6" y="12.21" width="5.8" height="5.8"/><rect x="48.5" y="60.41" width="5.8" height="5.8"/><rect x="60.6" y="60.51" width="5.8" height="5.8"/><rect x="72.7" y="60.41" width="5.8" height="5.9"/><polygon points="39 146.81 35.7 142.61 31.7 146.71 39.4 154.61 59.3 134.81 55.1 130.61 39 146.81"/></svg>